<?xml version="1.0" standalone="no"?>
<!DOCTYPE svg PUBLIC "-//W3C//DTD SVG 1.0//EN" "http://www.w3.org/TR/2001/REC-SVG-20010904/DTD/svg10.dtd">
<svg xmlns="http://www.w3.org/2000/svg" xmlns:xlink="http://www.w3.org/1999/xlink" id="body_1" width="150" height="152">

<g transform="matrix(2.4918032 0 0 2.4918032 0.24590188 -0)">
	<g transform="matrix(0.501645 0 0 0.501645 -451.53128 301.28784)">
	</g>
    <path transform="matrix(0.501645 0 0 0.501645 -451.53128 301.28784)"  d="M900.9427 -539.8C 900.9427 -572.9176 927.3403 -599.798 959.93616 -599.798C 992.53986 -599.798 1018.9374 -572.9488 1018.9374 -539.8C 1018.9374 -506.65125 992.53986 -479.80206 959.93616 -479.80206C 927.3403 -479.80206 900.9427 -506.65125 900.9427 -539.8" stroke="#000000" stroke-width="1.65" fill="none" />
	<g transform="matrix(0.501645 0 0 0.501645 -451.53128 301.28784)">
	</g>
    <path transform="matrix(0.501645 0 0 0.501645 -451.53128 301.28784)"  d="M948.5829 -501.65204L948.5829 -511.54138C 948.5829 -512.0631 948.8087 -512.2033 949.29926 -512.21106C 950.91895 -512.21106 950.91895 -512.21106 950.91895 -513.9164L950.91895 -513.9164L950.91895 -515.1389C 950.89557 -515.3414 950.9579 -515.5438 951.098 -515.684C 951.2304 -515.832 951.43286 -515.90985 951.62756 -515.8865C 952.632 -515.8865 952.632 -515.8865 952.39844 -516.9533C 951.26935 -521.89795 948.21686 -526.18854 943.91077 -528.8828C 943.38904 -529.20984 943.24884 -529.51355 943.537 -530.09753C 944.60376 -532.17664 945.5382 -534.28687 946.5894 -536.38153L946.5894 -536.38153L956.4632 -556.82214C 956.7669 -557.47626 957.10175 -558.1537 957.4132 -558.82336C 957.53 -559.1271 957.8415 -559.3139 958.1685 -559.2828L958.1685 -559.2828L961.1665 -559.2828C 961.5947 -559.3139 961.9841 -559.0492 962.11646 -558.6365C 963.27673 -556.19916 964.43695 -553.76965 965.6128 -551.34015C 966.81976 -548.7938 968.02673 -546.2164 969.24927 -543.6701C 969.48285 -543.1795 969.3583 -542.9381 968.9378 -542.67334C 966.88983 -541.3496 965.0677 -539.70654 963.5415 -537.79877C 961.92957 -535.5172 960.7849 -532.93976 960.162 -530.2221C 960.053 -529.7938 960.162 -529.6303 960.63696 -529.607C 961.7583 -529.607 961.7583 -529.5291 961.77386 -528.3922L961.77386 -528.3922L961.77386 -526.5234C 961.77386 -525.86145 961.89844 -525.9082 962.35785 -525.9004C 964.1177 -525.9004 964.1099 -525.8303 964.1099 -524.0627L964.1099 -524.0627L964.1099 -515.3414L948.5829 -501.65204zM958.51117 -555.327L958.3788 -555.327C 958.26196 -555.109 958.1296 -554.891 958.02057 -554.65735L958.02057 -554.65735L953.9013 -546.1463L946.4025 -530.7828C 946.1222 -530.2221 946.2468 -529.9496 946.70624 -529.56024C 948.7931 -528.034 950.5841 -526.1496 952.0013 -524.0004C 953.3329 -521.73444 954.3062 -519.27374 954.898 -516.7119C 955.007 -516.2992 955.0927 -515.95654 955.63 -515.95654L955.63 -515.95654L963.6972 -515.95654C 964.03986 -515.9176 964.3435 -516.15125 964.39026 -516.49384C 964.56934 -517.1324 964.74066 -517.7787 964.9509 -518.4094C 965.6984 -521.0803 966.9366 -523.5877 968.5874 -525.80695C 969.75543 -527.2242 971.10254 -528.49347 972.58984 -529.56805C 972.86237 -529.7082 973.05707 -529.9574 973.1193 -530.2533C 973.18164 -530.5492 973.096 -530.86066 972.9013 -531.0865C 972.5275 -531.7172 972.2628 -532.418 971.8968 -533.0877C 968.3693 -540.36066 964.8107 -547.66473 961.2366 -555C 961.18207 -555.14014 961.1587 -555.34265 960.90173 -555.38934L960.90173 -555.38934L960.90173 -539.582C 960.8083 -538.9668 961.1587 -538.3672 961.7427 -538.1414C 963.5415 -537.1836 964.38245 -535.07336 963.73615 -533.1422C 963.1599 -531.2734 961.3923 -530.0352 959.4378 -530.1365C 957.4677 -530.2299 955.8091 -531.6627 955.4431 -533.60944C 955.06934 -535.5406 956.06604 -537.47174 957.84924 -538.28937C 958.2698 -538.4217 958.52673 -538.8578 958.44104 -539.2938L958.44104 -539.2938L958.44104 -547.29095zM959.71814 -509.90616L951.86115 -509.90616C 951.2382 -509.90616 950.9812 -509.7504 950.9968 -509.11188L950.9968 -509.11188L950.9968 -504.61105C 950.9968 -504.07376 951.1837 -503.8791 951.7132 -503.8791L951.7132 -503.8791L967.66077 -503.8791C 968.2603 -503.8791 968.4005 -504.1127 968.4005 -504.65778L968.4005 -504.65778L968.4005 -509.08075C 968.4005 -509.70367 968.2292 -509.92172 967.5829 -509.92172C 965.021 -509.92172 962.38904 -509.92172 959.77264 -509.92172zM959.71814 -513.55817L954.00256 -513.55817C 953.51196 -513.55817 953.2239 -513.47253 953.2239 -512.88855C 953.2239 -512.3123 953.5198 -512.2189 954.00256 -512.2189L954.00256 -512.2189L965.44147 -512.2189C 965.93207 -512.2189 966.2124 -512.3123 966.2124 -512.88855C 966.2124 -513.47253 965.9165 -513.5738 965.4337 -513.55817C 963.5415 -513.55817 961.65704 -513.55817 959.74927 -513.55817zM961.5169 -534.4115C 961.54803 -534.90204 961.3845 -535.3848 961.05743 -535.7508C 960.7304 -536.1168 960.271 -536.34265 959.7804 -536.3738L959.7804 -536.3738L959.5935 -536.3738C 958.5657 -536.31146 957.7558 -535.4861 957.7091 -534.4582C 957.7013 -533.93646 957.90375 -533.4381 958.2775 -533.07214C 958.6513 -532.69836 959.1575 -532.4881 959.6792 -532.50366C 960.16974 -532.48035 960.6448 -532.6594 961.0029 -533.0021C 961.35333 -533.3213 961.55585 -533.77295 961.5714 -534.2479C 961.587 -534.2947 961.587 -534.3414 961.5714 -534.3803z" stroke="#000000" stroke-width="1.21" fill="none" />
	<g transform="matrix(0.501645 0 0 0.501645 -451.53128 301.28784)">
	</g>
    <path transform="matrix(0.501645 0 0 0.501645 -451.53128 301.28784)"  d="M948.1312 -565.86273L934.4964 -565.86273C 934.037 -565.91724 933.59314 -565.65247 933.42957 -565.2086C 932.97797 -564.2664 932.1681 -563.54224 931.1792 -563.2074C 930.19806 -562.86475 929.11566 -562.9348 928.1812 -563.40204C 928.0099 -563.4799 927.8464 -563.57336 927.6907 -563.6824C 925.8062 -564.9049 925.26117 -567.42786 926.4837 -569.32007L926.4837 -569.32007L926.6083 -569.50696C 927.2935 -570.3791 928.29803 -570.93976 929.40375 -571.0566C 930.49396 -571.1889 931.5997 -570.8697 932.4484 -570.1688L932.4484 -570.1688L932.5964 -570.05206C 932.91565 -569.7795 933.1726 -569.4369 933.32837 -569.04755C 933.5775 -568.40125 934.0214 -568.26886 934.6677 -568.26886L934.6677 -568.26886L952.67096 -568.26886C 953.8001 -568.26886 953.8001 -568.26886 953.8001 -569.4135L953.8001 -569.4135L953.8001 -571.7029C 953.8001 -572.2168 953.9714 -572.4426 954.5165 -572.4426L954.5165 -572.4426L964.22675 -572.4426C 964.803 -572.4426 965.0132 -572.2402 964.98206 -571.6795L964.98206 -571.6795L964.98206 -568.9775C 964.98206 -568.3078 965.1923 -568.1131 965.8386 -568.12866L965.8386 -568.12866L985.10333 -568.12866C 985.62506 -568.043 986.1312 -568.3389 986.3103 -568.8373C 987.0734 -570.3791 988.771 -571.2201 990.46075 -570.9008C 992.096 -570.69055 993.4353 -569.4992 993.83246 -567.9029C 994.2218 -565.9795 993.2017 -564.04834 991.40295 -563.293C 989.6353 -562.4832 987.54065 -563.1295 986.53613 -564.7881C 986.3882 -565.0217 986.2558 -565.2631 986.1312 -565.51227C 986.03 -565.75366 985.78864 -565.9016 985.5316 -565.8783L985.5316 -565.8783L972.69104 -565.8783C 972.69104 -565.8783 972.6288 -565.8783 972.5275 -565.7693C 973.67224 -565.1463 974.8169 -564.64795 975.88367 -563.9783C 983.4214 -559.4775 988.6075 -551.893 990.0714 -543.22626C 990.2505 -542.2295 990.2271 -542.2295 991.2784 -542.2295C 993.2796 -542.2295 993.2796 -542.2295 993.2796 -540.2283L993.2796 -540.2283L993.2796 -535.36926C 993.2796 -534.80084 993.12384 -534.52826 992.5009 -534.5438L992.5009 -534.5438L986.3415 -534.5438C 985.81976 -534.5438 985.60175 -534.72296 985.60175 -535.268L985.60175 -535.268L985.60175 -541.49756C 985.60175 -542.0193 985.7964 -542.22174 986.3337 -542.2295C 988.0079 -542.2295 988.00006 -542.2295 987.6185 -543.95044C 985.32916 -554.7352 976.8648 -563.1451 966.05664 -565.35657C 965.1923 -565.54346 965.16895 -565.5279 965.16895 -564.6324L965.16895 -564.6324L965.16895 -561.9303C 965.16895 -561.43195 965.021 -561.22174 964.49146 -561.22174L964.49146 -561.22174L954.5476 -561.22174C 954.0103 -561.22174 953.8234 -561.43976 953.839 -561.9615L953.839 -561.9615L953.839 -564.39874C 953.839 -564.9205 953.69104 -565.10736 953.13043 -564.95166C 945.18 -562.9115 938.5689 -557.3984 935.12714 -549.9463C 934.10706 -547.78156 933.3829 -545.4922 932.97015 -543.1328C 932.8222 -542.3697 932.8767 -542.27625 933.6632 -542.26843C 935.3685 -542.26843 935.3685 -542.26843 935.3685 -540.532L935.3685 -540.532L935.3685 -535.42377C 935.3685 -534.832 935.18945 -534.5984 934.56647 -534.60614L934.56647 -534.60614L928.4304 -534.60614C 927.8931 -534.60614 927.6984 -534.80084 927.6984 -535.33813L927.6984 -535.33813L927.6984 -541.5598C 927.6984 -542.11273 927.9165 -542.32294 928.4382 -542.27625C 928.9599 -542.2373 929.178 -542.27625 929.53613 -542.27625C 930.25256 -542.19836 930.54065 -542.48645 930.6107 -543.1717C 930.96893 -545.5467 931.6386 -547.85944 932.61194 -550.0631C 935.50867 -556.9078 940.8583 -562.4209 947.6095 -565.5279L947.6095 -565.5279L948.05334 -565.7381L948.1312 -565.86273zM956.12836 -566.9529L956.12836 -564.2664C 956.12836 -563.83813 956.26855 -563.62006 956.72797 -563.62006L956.72797 -563.62006L961.9997 -563.62006C 962.49805 -563.62006 962.70825 -563.8303 962.7005 -564.3287L962.7005 -564.3287L962.7005 -569.64716C 962.7005 -570.0832 962.5292 -570.29346 962.09314 -570.29346L962.09314 -570.29346L956.6968 -570.29346C 956.2529 -570.29346 956.0894 -570.091 956.0894 -569.64716C 956.0894 -568.75165 956.08167 -567.8484 956.08167 -566.9529zM988.2882 -566.9529C 988.21814 -566.1976 988.7476 -565.5201 989.5029 -565.4111C 990.4685 -565.35657 991.3251 -566.034 991.4964 -566.9918L991.4964 -566.9918L991.4964 -567.1086C 991.5743 -567.716 991.3017 -568.31555 990.80334 -568.6582C 990.29724 -569.0086 989.6431 -569.04755 989.1136 -568.7594C 988.56854 -568.4791 988.2259 -567.91846 988.2337 -567.3111C 988.2103 -567.202 988.2103 -567.08527 988.2337 -566.97626zM929.9177 -565.45C 930.3304 -565.40326 930.7431 -565.5279 931.0624 -565.7926C 931.3661 -566.0418 931.5607 -566.4 931.6075 -566.78937C 931.62305 -566.85944 931.62305 -566.9217 931.6075 -566.9918C 931.56854 -567.91846 930.821 -568.66595 929.88654 -568.69714C 929.4739 -568.7283 929.0689 -568.5803 928.75745 -568.3078C 928.4538 -568.0352 928.2669 -567.6459 928.2435 -567.2332C 928.22797 -567.1709 928.22797 -567.1164 928.2435 -567.0619C 928.2435 -566.61804 928.4226 -566.18976 928.7419 -565.8783C 929.0456 -565.59796 929.4505 -565.4422 929.871 -565.45zM931.4128 -536.9422C 933.0402 -536.9422 932.9001 -536.7631 932.9001 -538.4061C 932.9001 -540.05695 933.0091 -539.8 931.49066 -539.8C 929.9722 -539.8 930.00336 -540.00244 930.00336 -538.3205C 930.00336 -536.63855 929.83203 -536.92664 931.3972 -536.9111zM989.4095 -536.9422C 991.037 -536.9422 990.88904 -536.7709 990.8812 -538.4295C 990.8734 -540.08813 990.99805 -539.8 989.45624 -539.8C 987.92224 -539.8 988.00006 -540.00244 988.00006 -538.2971C 988.00006 -536.5996 987.83655 -536.92664 989.4095 -536.9111z" stroke="#000000" stroke-width="1.21" fill="none" />
	<g transform="matrix(0.501645 0 0 0.501645 -451.53128 301.28784)">
	</g>
    <path transform="matrix(0.501645 0 0 0.501645 -451.53128 301.28784)"  d="M961.5636 -534.3803C 961.57916 -533.8975 961.4079 -533.4303 961.0808 -533.0799C 960.7538 -532.7295 960.3021 -532.5193 959.81934 -532.50366L959.81934 -532.50366L959.68695 -532.50366C 958.63574 -532.4959 957.7792 -533.3369 957.74805 -534.3881C 957.79474 -535.41595 958.6046 -536.2414 959.63245 -536.3037C 960.6525 -536.34265 961.52466 -535.55615 961.5714 -534.52826C 961.5714 -534.48157 961.5714 -534.42706 961.5636 -534.3803z" stroke="#000000" stroke-width="1.21" fill="none" />
</g>
</svg>