<?xml version="1.0" encoding="UTF-8"?>
<svg xmlns="http://www.w3.org/2000/svg" xmlns:xlink="http://www.w3.org/1999/xlink" width="148px" height="150px" viewBox="0 0 30 30" version="1.1">
<g id="surface1">
<path style="fill:none;stroke-width:1.24;stroke-linecap:butt;stroke-linejoin:miter;stroke:rgb(0%,0%,0%);stroke-opacity:1;stroke-miterlimit:10;" d="M 899.926332 -539.6 C 899.926332 -573.287463 926.823694 -600.59728 959.995 -600.59728 C 993.166306 -600.59728 1020.063668 -573.303527 1020.063668 -539.6 C 1020.063668 -505.896473 993.166306 -478.60272 959.995 -478.60272 C 926.823694 -478.60272 899.926332 -505.896473 899.926332 -539.6 " transform="matrix(0.247178,0,0,0.243159,-222.289693,146.20854)"/>
<path style=" stroke:none;fill-rule:evenodd;fill:rgb(0%,0%,0%);fill-opacity:1;" d="M 10.175781 15 L 10.175781 7.203125 C 10.175781 6.253906 10.632812 5.554688 11.398438 5.328125 C 11.679688 5.273438 11.96875 5.261719 12.257812 5.28125 L 16.308594 5.28125 C 16.980469 5.28125 17.6875 5.28125 18.378906 5.304688 C 19.066406 5.324219 19.738281 6.082031 19.78125 6.910156 C 19.839844 7.96875 19.800781 9.011719 19.804688 10.070312 L 19.804688 22.683594 C 19.84375 23.226562 19.675781 23.761719 19.335938 24.1875 C 19.070312 24.519531 18.664062 24.71875 18.234375 24.722656 L 11.726562 24.722656 C 10.847656 24.722656 10.167969 23.910156 10.164062 22.886719 L 10.164062 14.992188 Z M 10.738281 14.171875 L 10.738281 20.605469 C 10.738281 20.773438 10.769531 20.847656 10.941406 20.847656 L 19.039062 20.847656 C 19.207031 20.847656 19.265625 20.804688 19.265625 20.605469 L 19.265625 7.78125 C 19.265625 7.582031 19.214844 7.523438 19.042969 7.523438 L 10.996094 7.523438 C 10.746094 7.523438 10.746094 7.523438 10.746094 7.800781 C 10.734375 9.925781 10.734375 12.050781 10.746094 14.175781 Z M 14.976562 24.09375 L 18.242188 24.09375 C 18.816406 24.09375 19.253906 23.59375 19.257812 22.933594 L 19.257812 21.667969 C 19.257812 21.515625 19.21875 21.460938 19.082031 21.464844 L 10.964844 21.464844 C 10.800781 21.464844 10.738281 21.515625 10.746094 21.707031 C 10.765625 22.085938 10.765625 22.46875 10.746094 22.847656 C 10.707031 23.15625 10.804688 23.46875 11.007812 23.707031 C 11.214844 23.945312 11.511719 24.085938 11.828125 24.101562 C 12.859375 24.058594 13.921875 24.085938 14.976562 24.078125 Z M 14.976562 6.886719 L 19.003906 6.886719 C 19.253906 6.886719 19.273438 6.835938 19.160156 6.585938 C 19.023438 6.183594 18.644531 5.914062 18.214844 5.90625 L 11.816406 5.90625 C 11.375 5.898438 10.976562 6.164062 10.828125 6.574219 C 10.71875 6.832031 10.738281 6.875 10.984375 6.875 Z M 14.976562 6.886719 "/>
<path style="fill:none;stroke-width:1.24;stroke-linecap:butt;stroke-linejoin:miter;stroke:rgb(0%,0%,0%);stroke-opacity:1;stroke-miterlimit:10;" d="M 959.931786 -572.9983 L 943.733316 -572.9983 C 942.737703 -572.9983 942.642883 -573.142881 943.101181 -574.235274 C 943.685906 -575.938122 945.297852 -577.078708 947.099437 -577.046579 L 973.001186 -577.046579 C 974.755362 -577.030514 976.319897 -575.905992 976.873016 -574.235274 C 977.31551 -573.239269 977.204887 -572.9983 976.256684 -572.9983 Z M 959.931786 -572.9983 " transform="matrix(0.247178,0,0,0.243159,-222.289693,146.20854)"/>
<path style=" stroke:none;fill-rule:evenodd;fill:rgb(0%,0%,0%);fill-opacity:1;" d="M 18.480469 14.074219 C 18.484375 14.183594 18.445312 14.285156 18.371094 14.359375 L 17.113281 15.792969 C 16.964844 15.957031 16.808594 15.96875 16.683594 15.839844 C 16.566406 15.695312 16.578125 15.484375 16.710938 15.355469 C 17.035156 14.976562 17.367188 14.597656 17.699219 14.226562 C 17.792969 14.121094 17.808594 14.054688 17.699219 13.945312 C 17.371094 13.582031 17.058594 13.214844 16.738281 12.84375 C 16.683594 12.789062 16.640625 12.730469 16.601562 12.664062 C 16.53125 12.546875 16.546875 12.398438 16.636719 12.296875 C 16.710938 12.195312 16.851562 12.164062 16.960938 12.226562 C 17.011719 12.261719 17.058594 12.300781 17.09375 12.347656 L 18.332031 13.769531 C 18.421875 13.84375 18.480469 13.957031 18.480469 14.074219 Z M 18.480469 14.074219 "/>
<path style=" stroke:none;fill-rule:evenodd;fill:rgb(0%,0%,0%);fill-opacity:1;" d="M 13.394531 15.632812 C 13.394531 15.738281 13.335938 15.835938 13.242188 15.890625 C 13.136719 15.945312 13.007812 15.917969 12.933594 15.828125 C 12.78125 15.667969 12.628906 15.496094 12.492188 15.328125 C 12.195312 14.996094 11.910156 14.695312 11.640625 14.355469 C 11.484375 14.226562 11.464844 14 11.59375 13.847656 L 11.640625 13.796875 C 12.066406 13.308594 12.492188 12.824219 12.921875 12.335938 C 13.0625 12.171875 13.226562 12.15625 13.347656 12.28125 C 13.476562 12.421875 13.464844 12.640625 13.324219 12.769531 C 12.996094 13.148438 12.660156 13.535156 12.320312 13.910156 C 12.210938 14.03125 12.195312 14.101562 12.320312 14.230469 C 12.652344 14.589844 12.96875 14.960938 13.289062 15.332031 C 13.359375 15.414062 13.398438 15.523438 13.394531 15.632812 Z M 13.394531 15.632812 "/>
<path style=" stroke:none;fill-rule:evenodd;fill:rgb(0%,0%,0%);fill-opacity:1;" d="M 15.800781 12.199219 C 16.011719 12.199219 16.136719 12.441406 16.03125 12.683594 C 15.953125 12.867188 15.851562 13.035156 15.761719 13.210938 C 15.335938 14.023438 14.90625 14.84375 14.484375 15.667969 C 14.460938 15.707031 14.445312 15.75 14.421875 15.785156 C 14.394531 15.847656 14.34375 15.894531 14.28125 15.917969 C 14.214844 15.941406 14.144531 15.9375 14.085938 15.910156 L 14.050781 15.890625 C 13.921875 15.792969 13.886719 15.617188 13.964844 15.476562 C 14.117188 15.15625 14.265625 14.839844 14.457031 14.523438 C 14.816406 13.824219 15.179688 13.128906 15.539062 12.4375 C 15.585938 12.308594 15.65625 12.199219 15.800781 12.199219 Z M 15.800781 12.199219 "/>
<path style="fill-rule:evenodd;fill:rgb(0%,0%,0%);fill-opacity:1;stroke-width:1.24;stroke-linecap:butt;stroke-linejoin:miter;stroke:rgb(0%,0%,0%);stroke-opacity:1;stroke-miterlimit:10;" d="M 959.995 -506.892478 L 957.703509 -506.892478 C 957.419048 -506.876413 957.118784 -506.988865 956.897536 -507.197705 C 956.676289 -507.39048 956.549862 -507.679643 956.534059 -507.968806 C 956.534059 -508.033064 956.534059 -508.097323 956.534059 -508.177646 C 956.502452 -508.466808 956.581469 -508.755971 956.771109 -508.99694 C 956.96075 -509.221844 957.213604 -509.366426 957.513868 -509.41462 L 962.254884 -509.41462 C 962.902823 -509.41462 963.455941 -508.900552 963.487548 -508.241904 L 963.487548 -508.145516 C 963.487548 -507.502932 962.997643 -506.956736 962.349704 -506.908542 L 959.995 -506.908542 Z M 959.995 -506.892478 " transform="matrix(0.247178,0,0,0.243159,-222.289693,146.20854)"/>
</g>
</svg>
