<?xml version="1.0" standalone="no"?>
<!DOCTYPE svg PUBLIC "-//W3C//DTD SVG 20010904//EN"
 "http://www.w3.org/TR/2001/REC-SVG-20010904/DTD/svg10.dtd">
<svg version="1.0" xmlns="http://www.w3.org/2000/svg"
 width="48.000000pt" height="48.000000pt" viewBox="0 0 48.000000 48.000000"
 preserveAspectRatio="xMidYMid meet">

<g transform="translate(0.000000,48.000000) scale(0.100000,-0.100000)"
fill="#000000" stroke="none">
<path d="M276 357 c-3 -12 -22 -38 -42 -57 -33 -31 -36 -33 -31 -12 8 32 -13
23 -40 -18 -33 -47 -31 -109 3 -144 31 -31 68 -38 42 -8 -8 9 -19 24 -23 32
-6 12 -5 13 6 3 22 -22 36 -15 31 15 -2 18 4 36 17 52 20 25 20 25 21 3 0 -12
5 -34 12 -48 8 -19 8 -31 0 -50 -16 -34 2 -33 39 4 25 25 29 37 29 81 0 46 -2
51 -15 40 -14 -12 -15 -8 -9 27 4 28 1 50 -10 71 -20 38 -22 39 -30 9z m21
-87 c-6 -69 2 -87 22 -52 9 14 10 12 11 -14 0 -18 -8 -40 -17 -51 -10 -10 -17
-17 -16 -15 1 2 -5 22 -14 43 -8 22 -12 50 -9 64 8 32 -1 32 -36 -2 -24 -23
-28 -24 -28 -8 0 18 68 102 84 104 5 1 6 -30 3 -69z m-99 -63 c7 2 12 -7 12
-19 0 -20 -1 -21 -20 -3 -20 18 -20 17 -20 -11 0 -22 -3 -26 -10 -14 -13 21
-12 54 3 87 l12 27 5 -34 c3 -20 11 -34 18 -33z"/>
</g>
</svg>
