<?xml version="1.0" encoding="UTF-8"?>
<svg xmlns="http://www.w3.org/2000/svg" xmlns:xlink="http://www.w3.org/1999/xlink" width="148px" height="150px" viewBox="0 0 30 30" version="1.1">
<g id="surface1">
<path style=" stroke:none;fill-rule:evenodd;fill:rgb(0%,0%,0%);fill-opacity:1;" d="M 15 8.375 L 22.910156 8.375 C 23.375 8.375 23.585938 8.582031 23.585938 9.039062 L 23.585938 18.957031 C 23.585938 19.441406 23.382812 19.636719 22.890625 19.636719 L 15.835938 19.636719 C 15.589844 19.636719 15.589844 19.636719 15.589844 19.878906 L 15.589844 22.210938 C 15.589844 22.363281 15.628906 22.417969 15.789062 22.414062 L 17.289062 22.414062 C 17.523438 22.402344 17.738281 22.539062 17.828125 22.75 C 17.921875 22.945312 17.882812 22.996094 17.667969 22.996094 L 12.339844 22.996094 C 12.125 22.996094 12.09375 22.933594 12.179688 22.75 C 12.269531 22.539062 12.484375 22.40625 12.71875 22.414062 L 14.222656 22.414062 C 14.378906 22.414062 14.421875 22.367188 14.417969 22.214844 L 14.417969 19.820312 C 14.417969 19.667969 14.382812 19.613281 14.222656 19.617188 L 7.089844 19.617188 C 6.625 19.617188 6.410156 19.410156 6.410156 18.957031 L 6.410156 8.988281 C 6.394531 8.835938 6.4375 8.6875 6.53125 8.570312 C 6.625 8.449219 6.765625 8.375 6.917969 8.359375 C 6.960938 8.351562 7.007812 8.351562 7.050781 8.359375 L 15 8.359375 C 18.953125 8.375 15 8.375 15 8.375 Z M 15 18.488281 L 22.769531 18.488281 C 22.902344 18.488281 22.988281 18.488281 22.988281 18.308594 L 22.988281 9.140625 C 22.988281 9.007812 22.949219 8.945312 22.804688 8.960938 L 7.292969 8.960938 C 7.015625 8.960938 7.015625 8.960938 7.015625 9.238281 L 7.015625 18.25 C 7.015625 18.492188 7.015625 18.492188 7.265625 18.492188 Z M 15 18.488281 "/>
<path style=" stroke:none;fill-rule:evenodd;fill:rgb(0%,0%,0%);fill-opacity:1;" d="M 16.632812 16.753906 C 16.589844 16.753906 16.550781 16.734375 16.527344 16.699219 C 16.195312 16.359375 16.195312 16.332031 16.574219 16.050781 C 17.449219 15.402344 18.328125 14.753906 19.210938 14.105469 C 19.34375 14.003906 19.335938 13.957031 19.210938 13.847656 C 18.25 12.988281 17.296875 12.125 16.339844 11.261719 C 16.21875 11.15625 16.214844 11.089844 16.339844 10.964844 C 16.644531 10.6875 16.625 10.683594 16.925781 10.964844 L 20.175781 13.894531 C 20.34375 14.042969 20.339844 14.046875 20.175781 14.171875 L 16.761719 16.671875 Z M 16.632812 16.753906 "/>
<path style=" stroke:none;fill-rule:evenodd;fill:rgb(0%,0%,0%);fill-opacity:1;" d="M 13.191406 11.105469 C 13.191406 11.175781 13.140625 11.203125 13.101562 11.238281 L 11.125 13.035156 C 10.820312 13.308594 10.515625 13.589844 10.210938 13.863281 C 10.105469 13.957031 10.101562 14.007812 10.210938 14.105469 C 11.152344 14.800781 12.09375 15.5 13.035156 16.203125 C 13.167969 16.300781 13.191406 16.371094 13.082031 16.503906 C 12.835938 16.800781 12.835938 16.800781 12.527344 16.582031 L 9.242188 14.171875 C 9.109375 14.078125 9.109375 14.023438 9.226562 13.910156 C 10.378906 12.875 11.523438 11.839844 12.65625 10.800781 C 12.769531 10.695312 12.851562 10.695312 12.960938 10.800781 C 13.042969 10.898438 13.121094 11 13.191406 11.105469 Z M 13.191406 11.105469 "/>
<path style=" stroke:none;fill-rule:evenodd;fill:rgb(0%,0%,0%);fill-opacity:1;" d="M 15.835938 11.089844 L 15.589844 11.949219 C 15.132812 13.429688 14.679688 14.914062 14.230469 16.398438 C 14.152344 16.65625 14.15625 16.660156 13.894531 16.582031 C 13.550781 16.476562 13.542969 16.5625 13.667969 16.148438 C 14.183594 14.453125 14.699219 12.75 15.21875 11.042969 C 15.285156 10.8125 15.285156 10.796875 15.523438 10.878906 L 15.769531 10.949219 C 15.8125 10.980469 15.859375 11.011719 15.835938 11.089844 Z M 15.835938 11.089844 "/>
<path style="fill:none;stroke-width:1.68;stroke-linecap:butt;stroke-linejoin:miter;stroke:rgb(0%,0%,0%);stroke-opacity:1;stroke-miterlimit:10;" d="M 900.147648 -539.6 C 900.147648 -573.161711 926.952398 -600.361317 960 -600.361317 C 993.047602 -600.361317 1019.852352 -573.161711 1019.852352 -539.6 C 1019.852352 -506.038289 993.063406 -478.838683 960 -478.838683 C 926.936594 -478.838683 900.147648 -506.006157 900.147648 -539.6 " transform="matrix(0.247158,0,0,0.243139,-222.271379,146.19773)"/>
</g>
</svg>
